# This file uses feet as units for non-parametric coordinates.

g default
v 664.724971 -3.411770 -215.982073
v 565.448859 -3.411770 -410.822433
v 410.822642 -3.411770 -565.448607
v 215.982260 -3.411770 -664.724718
v 0.000084 -3.411770 -698.932898
v -215.982093 -3.411770 -664.724674
v -410.822388 -3.411770 -565.448519
v -565.448517 -3.411770 -410.822302
v -664.724585 -3.411770 -215.981985
v -698.932765 -3.411770 0.000125
v -664.724585 -3.411770 215.982236
v -565.448473 -3.411770 410.822509
v -410.822300 -3.411770 565.448639
v -215.982027 -3.411770 664.724707
v 0.000063 -3.411770 698.932887
v 215.982151 -3.411770 664.724663
v 410.822380 -3.411770 565.448595
v 565.448510 -3.411770 410.822466
v 664.724577 -3.411770 215.982215
v 698.932757 -3.411770 0.000125
vt 0.648603 0.795466
vt 0.626409 0.751908
vt 0.591842 0.717341
vt 0.548284 0.695147
vt 0.500000 0.762500
vt 0.451716 0.695147
vt 0.408159 0.717341
vt 0.373591 0.751909
vt 0.351397 0.795466
vt 0.343750 0.843750
vt 0.351397 0.892034
vt 0.373591 0.935591
vt 0.408159 0.970159
vt 0.451716 0.992353
vt 0.500000 1.000000
vt 0.548284 0.992353
vt 0.591841 0.970159
vt 0.626409 0.935591
vt 0.648603 0.892034
vt 0.656250 0.843750
vn 0.000000 1.000000 0.000000
vn 0.000000 1.000000 0.000000
vn 0.000000 1.000000 -0.000000
vn 0.000000 1.000000 0.000000
vn 0.000000 1.000000 0.000000
vn 0.000000 1.000000 0.000000
vn 0.000000 1.000000 -0.000000
vn 0.000000 1.000000 -0.000000
vn 0.000000 1.000000 0.000000
vn 0.000000 1.000000 0.000000
vn 0.000000 1.000000 0.000000
vn 0.000000 1.000000 -0.000000
vn 0.000000 1.000000 0.000000
vn 0.000000 1.000000 0.000000
vn 0.000000 1.000000 0.000000
vn 0.000000 1.000000 -0.000002
vn 0.000000 1.000000 -0.000000
vn 0.000000 1.000000 0.000000
vn 0.000000 1.000000 0.000000
vn 0.000000 1.000000 -0.000000
s 1
g pCylinder38
f 1/19/1 2/18/2 15/5/3
f 2/18/2 3/17/4 15/5/3
f 3/17/4 4/16/5 15/5/3
f 4/16/5 5/15/6 15/5/3
f 5/15/6 6/14/7 15/5/3
f 6/14/7 7/13/8 15/5/3
f 7/13/8 8/12/9 15/5/3
f 8/12/9 9/11/10 15/5/3
f 9/11/10 10/10/11 15/5/3
f 10/10/11 11/9/12 15/5/3
f 11/9/12 12/8/13 15/5/3
f 12/8/13 13/7/14 15/5/3
f 13/7/14 14/6/15 15/5/3
f 16/4/16 17/3/17 15/5/3
f 17/3/17 18/2/18 15/5/3
f 18/2/18 19/1/19 15/5/3
f 19/1/19 20/20/20 15/5/3
f 20/20/20 1/19/1 15/5/3
