# This file uses feet as units for non-parametric coordinates.

g default
v 1.882690 21.882122 1.606859
v -1.967133 21.882122 1.606859
v 1.882690 -0.027648 1.499572
v -1.967133 -0.027648 1.499572
v 1.882690 21.887844 0.797204
v -1.967133 21.887844 0.797204
v 1.882690 -0.021941 0.689942
v -1.967133 -0.021941 0.689942
v 12.151176 41.943352 0.832447
v 6.991440 47.102943 0.869905
v -0.056900 48.991486 0.883632
v -7.105240 47.102943 0.869905
v -12.264969 41.943352 0.832447
v -14.153564 34.895203 0.781277
v -12.264969 27.847061 0.730107
v -7.105240 22.687477 0.692649
v -0.056900 20.798937 0.678937
v 6.991440 22.687477 0.692649
v 12.151176 27.847061 0.730107
v 14.039772 34.895203 0.781277
v 12.151176 41.938873 1.829071
v 6.991440 47.098404 1.874908
v -0.056900 48.986923 1.891663
v -7.105240 47.098404 1.874908
v -12.264969 41.938873 1.829071
v -14.153564 34.890808 1.766479
v -12.264969 27.842758 1.703888
v -7.105240 22.683228 1.658051
v -0.056900 20.794708 1.641296
v 6.991440 22.683228 1.658051
v 12.151176 27.842758 1.703888
v 14.039772 34.890808 1.766479
v -13.659119 38.535370 1.798859
v -10.014420 44.847946 1.854919
v -3.701599 48.492493 1.887268
v 3.587799 48.492493 1.887268
v 9.900620 44.847946 1.854919
v 13.545319 38.535370 1.798859
v 13.545319 31.246262 1.734100
v 9.900620 24.933685 1.678040
v -13.659119 31.246262 1.734100
v -10.014420 24.933685 1.678040
v -3.701599 48.497047 0.880042
v -10.014420 44.852448 0.853567
v -13.659119 38.539810 0.807737
v -13.659119 31.250614 0.754833
v -10.014420 24.937962 0.708987
v -3.701599 21.289139 1.645691
v -3.701599 21.293365 0.682528
v 3.587799 21.289139 1.645691
v 3.587799 21.293365 0.682528
v 9.895241 24.951458 0.709109
v 13.545319 31.250614 0.754833
v 13.545319 38.539810 0.807737
v 9.900620 44.852448 0.853567
v 3.587799 48.497047 0.880042
vt 0.232397 0.718423
vt 0.232484 0.738228
vt 0.051793 0.738139
vt 0.051706 0.718334
vt 0.225969 0.736213
vt 0.226146 0.722024
vt 0.057396 0.734108
vt 0.057574 0.719919
vt 0.057574 0.719919
vt 0.057396 0.734108
vt 0.226146 0.722024
vt 0.225969 0.736213
vt 0.929941 0.424463
vt 0.929928 0.418162
vt 0.940277 0.418149
vt 0.940344 0.424475
vt 0.950693 0.424461
vt 0.950680 0.418160
vt 0.961084 0.418171
vt 0.961042 0.424448
vt 0.847743 0.417207
vt 0.847785 0.411114
vt 0.859401 0.411114
vt 0.859401 0.417207
vt 0.873395 0.417207
vt 0.873370 0.411114
vt 0.887339 0.411114
vt 0.887388 0.417207
vt 0.893050 0.417207
vt 0.893015 0.411114
vt 0.898690 0.411114
vt 0.898711 0.417207
vt 0.904386 0.417207
vt 0.904351 0.411114
vt 0.910013 0.411114
vt 0.910062 0.417207
vt 0.924031 0.417207
vt 0.924006 0.411114
vt 0.938000 0.411114
vt 0.938000 0.417207
vt 0.949616 0.417207
vt 0.949658 0.411114
vt 0.961316 0.411114
vt 0.961232 0.417207
vt 0.852641 0.409700
vt 0.852657 0.402099
vt 0.868894 0.402111
vt 0.868905 0.409835
vt 0.884058 0.409683
vt 0.884034 0.402097
vt 0.899174 0.402082
vt 0.899212 0.409532
vt 0.914352 0.409517
vt 0.914328 0.401930
vt 0.929481 0.401779
vt 0.929492 0.409502
vt 0.945729 0.409515
vt 0.945745 0.401913
vt 0.962009 0.402048
vt 0.961967 0.409527
vt 0.984474 0.952296
vt 0.969997 0.971010
vt 0.905943 0.816276
vt 0.929388 0.994455
vt 0.905943 0.997636
vt 0.882497 0.994455
vt 0.841888 0.971010
vt 0.827411 0.952296
vt 0.818443 0.930401
vt 0.815263 0.906956
vt 0.818443 0.883510
vt 0.841889 0.842902
vt 0.860603 0.828425
vt 0.969996 0.842902
vt 0.984473 0.861616
vt 0.993442 0.883510
vt 0.993442 0.930401
vt 0.860602 0.985487
vt 0.951283 0.985487
vt 0.996623 0.906956
vt 0.951282 0.828425
vt 0.827412 0.861616
vt 0.836169 0.411114
vt 0.836085 0.417207
vt 0.836419 0.402086
vt 0.836377 0.409565
vt 0.919579 0.418175
vt 0.919538 0.424452
vt 0.882497 0.819457
vt 0.929388 0.819457
vt 0.232397 0.718423
vt 0.051706 0.718334
vt 0.051793 0.738139
vt 0.232484 0.738228
vt 0.984474 0.952296
vt 0.905943 0.816276
vt 0.969997 0.971010
vt 0.905943 0.997636
vt 0.929388 0.994455
vt 0.882497 0.994455
vt 0.827411 0.952296
vt 0.841888 0.971010
vt 0.818443 0.930401
vt 0.815263 0.906956
vt 0.818443 0.883510
vt 0.860603 0.828425
vt 0.841889 0.842902
vt 0.984473 0.861616
vt 0.969996 0.842902
vt 0.993442 0.883510
vt 0.993442 0.930401
vt 0.860602 0.985487
vt 0.951283 0.985487
vt 0.996623 0.906956
vt 0.951282 0.828425
vt 0.827412 0.861616
vt 0.882497 0.819457
vt 0.929388 0.819457
vn 0.000000 -0.004897 0.999988
vn 0.000000 -0.004897 0.999988
vn 0.000000 -0.004897 0.999988
vn 0.000000 -0.004897 0.999988
vn 1.000000 -0.000000 0.000000
vn 1.000000 -0.000000 0.000000
vn 1.000000 -0.000000 0.000000
vn 1.000000 -0.000000 0.000000
vn -1.000000 0.000000 0.000000
vn -1.000000 0.000000 0.000000
vn -1.000000 0.000000 0.000000
vn -1.000000 0.000000 0.000000
vn 0.706738 0.707468 0.003184
vn 0.707026 0.707180 0.003183
vn 0.611879 0.790944 0.003565
vn 0.611879 0.790944 0.003565
vn 0.258637 0.965965 0.004370
vn 0.258780 0.965927 0.004370
vn 0.134431 0.990913 0.004484
vn 0.134431 0.990913 0.004484
vn -0.258637 0.965965 0.004370
vn -0.258780 0.965927 0.004370
vn -0.379037 0.925372 0.004185
vn -0.379037 0.925372 0.004185
vn -0.706739 0.707467 0.003184
vn -0.707027 0.707179 0.003183
vn -0.790948 0.611877 0.002749
vn -0.790948 0.611877 0.002749
vn -0.965741 0.259504 0.001164
vn -0.965886 0.258964 0.001161
vn -0.990923 0.134430 0.000601
vn -0.990923 0.134430 0.000601
vn -0.966111 -0.258125 -0.001146
vn -0.965965 -0.258671 -0.001148
vn -0.925379 -0.379039 -0.001680
vn -0.925379 -0.379039 -0.001680
vn -0.707479 -0.706727 -0.003118
vn -0.707184 -0.707022 -0.003119
vn -0.611878 -0.790945 -0.003487
vn -0.611878 -0.790945 -0.003487
vn -0.259004 -0.965867 -0.004243
vn -0.258856 -0.965907 -0.004243
vn -0.134429 -0.990914 -0.004350
vn -0.134429 -0.990914 -0.004350
vn 0.259004 -0.965867 -0.004243
vn 0.258856 -0.965907 -0.004243
vn 0.379038 -0.925372 -0.004068
vn 0.379037 -0.925372 -0.004068
vn 0.707136 -0.707006 -0.010005
vn 0.707511 -0.706631 -0.010001
vn 0.789899 -0.613169 -0.009155
vn 0.789899 -0.613169 -0.009155
vn 0.966111 -0.258125 -0.001145
vn 0.965965 -0.258671 -0.001148
vn 0.990923 -0.134432 -0.000598
vn 0.990923 -0.134432 -0.000598
vn 0.965741 0.259504 0.001163
vn 0.965886 0.258964 0.001161
vn 0.925380 0.379038 0.001701
vn 0.925380 0.379038 0.001701
vn 0.000001 -0.008881 0.999961
vn 0.000002 -0.008882 0.999961
vn 0.000000 -0.008881 0.999961
vn -0.000002 -0.008880 0.999961
vn 0.000000 -0.008880 0.999961
vn 0.000002 -0.008880 0.999961
vn -0.000002 -0.008882 0.999961
vn -0.000001 -0.008881 0.999961
vn 0.000002 -0.008879 0.999961
vn -0.000003 -0.008884 0.999961
vn -0.000003 -0.008883 0.999961
vn -0.000005 -0.008889 0.999960
vn -0.000004 -0.008887 0.999961
vn 0.000005 -0.008889 0.999961
vn -0.000002 -0.008877 0.999961
vn 0.000003 -0.008883 0.999961
vn -0.000002 -0.008879 0.999961
vn 0.000003 -0.008880 0.999961
vn -0.000003 -0.008880 0.999961
vn 0.000003 -0.008884 0.999961
vn 0.000004 -0.008887 0.999961
vn 0.000002 -0.008877 0.999961
vn -0.134431 0.990913 0.004484
vn -0.134431 0.990913 0.004484
vn -0.611879 0.790944 0.003565
vn -0.611879 0.790944 0.003565
vn -0.925379 0.379040 0.001701
vn -0.925379 0.379040 0.001701
vn -0.990923 -0.134430 -0.000599
vn -0.990923 -0.134430 -0.000599
vn -0.790948 -0.611878 -0.002702
vn -0.790948 -0.611878 -0.002702
vn -0.379037 -0.925372 -0.004068
vn -0.379037 -0.925372 -0.004068
vn 0.134429 -0.990914 -0.004350
vn 0.134429 -0.990914 -0.004350
vn 0.613374 -0.789720 -0.010698
vn 0.613374 -0.789720 -0.010698
vn 0.925380 -0.379038 -0.001680
vn 0.925380 -0.379038 -0.001680
vn 0.990923 0.134431 0.000601
vn 0.990923 0.134431 0.000601
vn 0.790947 0.611879 0.002749
vn 0.790947 0.611879 0.002749
vn 0.379037 0.925372 0.004185
vn 0.379037 0.925372 0.004185
vn 0.000004 -0.008854 0.999961
vn -0.000004 -0.008854 0.999961
vn 0.000000 0.004896 -0.999988
vn 0.000000 0.004896 -0.999988
vn 0.000000 0.004896 -0.999988
vn 0.000000 0.004896 -0.999988
vn 0.000000 0.007260 -0.999974
vn 0.000000 0.007260 -0.999974
vn 0.000000 0.007260 -0.999974
vn 0.000000 0.007260 -0.999974
vn -0.000002 0.007261 -0.999974
vn 0.000002 0.007261 -0.999974
vn -0.000000 0.007260 -0.999974
vn -0.000000 0.007260 -0.999974
vn 0.000000 0.007260 -0.999974
vn -0.000001 0.007259 -0.999974
vn -0.000004 0.007256 -0.999974
vn -0.000000 0.007259 -0.999974
vn -0.000000 0.007260 -0.999974
vn -0.000002 0.007264 -0.999974
vn 0.000008 0.007246 -0.999974
vn 0.000004 0.007256 -0.999974
vn -0.000000 0.007260 -0.999974
vn 0.000002 0.007260 -0.999974
vn -0.000002 0.007260 -0.999974
vn 0.000001 0.007259 -0.999974
vn -0.000004 0.007275 -0.999974
vn 0.000003 0.007265 -0.999974
vn -0.000000 0.007259 -0.999974
vn 0.000000 0.007259 -0.999974
s off
g polySurface81
f 1/1/1 2/2/2 4/3/3 3/4/4
f 1/5/5 3/7/6 7/8/7 5/6/8
f 4/9/9 2/11/10 6/12/11 8/10/12
s 1
f 37/13/13 55/14/14 10/15/15 22/16/16
s 2
f 36/17/17 56/18/18 11/19/19 23/20/20
s 3
f 35/21/21 43/22/22 12/23/23 24/24/24
s 4
f 34/25/25 44/26/26 13/27/27 25/28/28
s 5
f 33/29/29 45/30/30 14/31/31 26/32/32
s 6
f 41/33/33 46/34/34 15/35/35 27/36/36
s 7
f 42/37/37 47/38/38 16/39/39 28/40/40
s 8
f 48/41/41 49/42/42 17/43/43 29/44/44
s 9
f 50/45/45 51/46/46 18/47/47 30/48/48
s 10
f 40/49/49 52/50/50 19/51/51 31/52/52
s 11
f 39/53/53 53/54/54 20/55/55 32/56/56
s 12
f 38/57/57 54/58/58 9/59/59 21/60/60
s 13
f 21/61/61 37/62/62 29/63/63
f 29/63/63 36/64/64 23/65/65
f 23/65/65 35/66/66 29/63/63
f 29/63/63 34/67/67 25/68/68
f 25/68/68 33/69/69 29/63/63
f 26/70/70 41/71/71 29/63/63
f 29/63/63 42/72/72 28/73/73
f 29/63/63 40/74/74 31/75/75
f 31/75/75 39/76/76 29/63/63
f 29/63/63 38/77/77 21/61/61
f 29/63/63 33/69/69 26/70/70
f 24/78/78 34/67/67 29/63/63
f 29/63/63 35/66/66 24/78/78
f 22/79/79 36/64/64 29/63/63
f 29/63/63 37/62/62 22/79/79
f 32/80/80 38/77/77 29/63/63
f 29/63/63 39/76/76 32/80/80
f 30/81/81 40/74/74 29/63/63
f 29/63/63 41/71/71 27/82/82
f 27/82/82 42/72/72 29/63/63
s 3
f 11/83/83 43/22/22 35/21/21 23/84/84
s 4
f 12/23/85 44/26/26 34/25/25 24/24/86
s 5
f 13/27/87 45/30/30 33/29/29 25/28/88
s 6
f 14/31/89 46/34/34 41/33/33 26/32/90
s 7
f 15/35/91 47/38/38 42/37/37 27/36/92
s 8
f 16/39/93 49/42/42 48/41/41 28/40/94
s 9
f 17/85/95 51/46/46 50/45/45 29/86/96
s 10
f 18/47/97 52/50/50 40/49/49 30/48/98
s 11
f 19/51/99 53/54/54 39/53/53 31/52/100
s 12
f 20/55/101 54/58/58 38/57/57 32/56/102
s 1
f 9/87/103 55/14/14 37/13/13 21/88/104
s 2
f 10/15/105 56/18/18 36/17/17 22/16/106
s 13
f 29/63/63 28/73/73 48/89/107
f 30/81/81 29/63/63 50/90/108
s off
f 5/91/109 7/92/110 8/93/111 6/94/112
s 19
f 9/95/113 17/96/114 55/97/115
f 17/96/114 11/98/116 56/99/117
f 11/98/116 17/96/114 43/100/118
f 17/96/114 13/101/119 44/102/120
f 13/101/119 17/96/114 45/103/121
f 14/104/122 17/96/114 46/105/123
f 17/96/114 16/106/124 47/107/125
f 17/96/114 19/108/126 52/109/127
f 19/108/126 17/96/114 53/110/128
f 17/96/114 9/95/113 54/111/129
f 17/96/114 14/104/122 45/103/121
f 12/112/130 17/96/114 44/102/120
f 17/96/114 12/112/130 43/100/118
f 10/113/131 17/96/114 56/99/117
f 17/96/114 10/113/131 55/97/115
f 20/114/132 17/96/114 54/111/129
f 17/96/114 20/114/132 53/110/128
f 18/115/133 17/96/114 52/109/127
f 17/96/114 15/116/134 46/105/123
f 15/116/134 17/96/114 47/107/125
f 17/96/114 49/117/135 16/106/124
f 18/115/133 51/118/136 17/96/114
